<?xml version="1.0" encoding="UTF-8" standalone="no"?>
<!-- Created with Inkscape (http://www.inkscape.org/) -->

<svg
   xmlns:dc="http://purl.org/dc/elements/1.1/"
   xmlns:cc="http://creativecommons.org/ns#"
   xmlns:rdf="http://www.w3.org/1999/02/22-rdf-syntax-ns#"
   xmlns:svg="http://www.w3.org/2000/svg"
   xmlns="http://www.w3.org/2000/svg"
   xmlns:sodipodi="http://sodipodi.sourceforge.net/DTD/sodipodi-0.dtd"
   xmlns:inkscape="http://www.inkscape.org/namespaces/inkscape"
   id="svg2"
   version="1.1"
   inkscape:version="0.48.5 r10040"
   width="664.42908"
   height="202.17166"
   sodipodi:docname="pnpm.svg">
  <metadata
     id="metadata8">
    <rdf:RDF>
      <cc:Work
         rdf:about="">
        <dc:format>image/svg+xml</dc:format>
        <dc:type
           rdf:resource="http://purl.org/dc/dcmitype/StillImage" />
        <dc:title></dc:title>
      </cc:Work>
    </rdf:RDF>
  </metadata>
  <defs
     id="defs6" />
  <sodipodi:namedview
     pagecolor="#ffffff"
     bordercolor="#666666"
     borderopacity="1"
     objecttolerance="10"
     gridtolerance="10"
     guidetolerance="10"
     inkscape:pageopacity="0"
     inkscape:pageshadow="2"
     inkscape:window-width="1366"
     inkscape:window-height="702"
     id="namedview4"
     showgrid="false"
     showguides="true"
     inkscape:guide-bbox="true"
     inkscape:object-paths="true"
     inkscape:object-nodes="true"
     inkscape:snap-bbox="true"
     fit-margin-top="0"
     fit-margin-left="0"
     fit-margin-right="0"
     fit-margin-bottom="0"
     inkscape:zoom="0.89648605"
     inkscape:cx="364.69613"
     inkscape:cy="-24.094541"
     inkscape:window-x="0"
     inkscape:window-y="27"
     inkscape:window-maximized="1"
     inkscape:current-layer="svg2" />
  <path
     style="fill:#006ea9;fill-opacity:1;stroke:none"
     d="m 0,0.28125 0,201.875 114.5625,-0.875 0.34375,-28.125 175.09375,0 0,29 114.5625,-0.875 0.34375,-28.125 258.78125,0 0,-172.875 z"
     id="path2999"
     inkscape:connector-curvature="0"
     sodipodi:nodetypes="ccccccccccc" />
  <path
     style="fill:#ffffff;fill-opacity:1;stroke:none"
     d="m 174.54924,86.720895 0,-57.446515 57.44651,0 57.44652,0 0,57.446515 0,57.446515 -14.22219,0 -14.2222,0 0,-42.94545 0,-42.945456 -14.50106,0 -14.50107,0 0,42.945456 0,42.94545 -28.72325,0 -28.72326,0 0,-57.446515 z"
     id="path2989"
     inkscape:connector-curvature="0" />
  <path
     style="fill:#ffffff;fill-opacity:1;stroke:none"
     d="m 319.00213,101.22196 0,-71.94758 57.16765,0 57.16765,0 0,57.446515 0,57.446515 -28.72326,0 -28.72326,0 0,14.50106 0,14.50107 -28.44439,0 -28.44439,0 0,-71.94758 z m 85.89091,-14.501065 0,-28.444391 -14.50107,0 -14.50106,0 0,28.444391 0,28.444395 14.50106,0 14.50107,0 0,-28.444395 z"
     id="path2991"
     inkscape:connector-curvature="0" />
  <path
     style="fill:#ffffff;fill-opacity:1;stroke:none"
     d="m 462.89728,86.720895 0,-57.446515 86.44864,0 86.44864,0 0,57.446515 0,57.446515 -14.50106,0 -14.50106,0 0,-42.94545 0,-42.945456 -14.50106,0 -14.50106,0 0,42.945456 0,42.94545 -14.50107,0 -14.50106,0 0,-42.94545 0,-42.945456 -14.50106,0 -14.50106,0 0,42.945456 0,42.94545 -28.44439,0 -28.4444,0 0,-57.446515 z"
     id="path2995"
     inkscape:connector-curvature="0" />
  <path
     inkscape:connector-curvature="0"
     id="path2997"
     d="m 29.00213,101.22196 0,-71.94758 57.16765,0 57.16765,0 0,57.446515 0,57.446515 -28.72326,0 -28.72326,0 0,14.50106 0,14.50107 -28.44439,0 -28.44439,0 0,-71.94758 z m 85.89091,-14.501065 0,-28.444391 -14.50107,0 -14.50106,0 0,28.444391 0,28.444395 14.50106,0 14.50107,0 0,-28.444395 z"
     style="fill:#ffffff;fill-opacity:1;stroke:none" />
</svg>
